<?xml version="1.0" encoding="UTF-8" standalone="no"?>
<!DOCTYPE svg PUBLIC "-//W3C//DTD SVG 1.1//EN"
 "http://www.w3.org/Graphics/SVG/1.1/DTD/svg11.dtd">
<!-- Generated by graphviz version 2.38.0 (20140413.2041)
 -->
<!-- Title: graphname Pages: 1 -->
<svg width="375pt" height="766pt"
 viewBox="0.00 0.00 374.89 765.80" xmlns="http://www.w3.org/2000/svg" xmlns:xlink="http://www.w3.org/1999/xlink">
<g id="graph0" class="graph" transform="scale(1 1) rotate(0) translate(4 761.8)">
<title>graphname</title>
<polygon fill="white" stroke="none" points="-4,4 -4,-761.8 370.887,-761.8 370.887,4 -4,4"/>
<!-- p0 -->
<g id="node1" class="node"><title>p0</title>
<ellipse fill="black" stroke="black" cx="201.743" cy="-740.2" rx="3.6" ry="3.6"/>
<text text-anchor="middle" x="172.091" y="-746.6" font-family="Times,serif" font-size="14.00">fromPath</text>
</g>
<!-- p1 -->
<g id="node2" class="node"><title>p1</title>
<ellipse fill="none" stroke="black" cx="201.743" cy="-696.1" rx="3.5" ry="3.5"/>
<text text-anchor="middle" x="175.301" y="-702.4" font-family="Times,serif" font-size="14.00">ifEmpty</text>
</g>
<!-- p0&#45;&gt;p1 -->
<g id="edge1" class="edge"><title>p0&#45;&gt;p1</title>
<path fill="none" stroke="black" d="M201.743,-736.438C201.743,-731.146 201.743,-719.279 201.743,-709.954"/>
<polygon fill="black" stroke="black" points="205.243,-709.928 201.743,-699.928 198.243,-709.928 205.243,-709.928"/>
</g>
<!-- p2 -->
<g id="node3" class="node"><title>p2</title>
<ellipse fill="none" stroke="black" cx="201.743" cy="-624.6" rx="87.9152" ry="18"/>
<text text-anchor="middle" x="201.743" y="-620.4" font-family="Times,serif" font-size="14.00">get_shuffle_replicates</text>
</g>
<!-- p1&#45;&gt;p2 -->
<g id="edge2" class="edge"><title>p1&#45;&gt;p2</title>
<path fill="none" stroke="black" d="M201.743,-692.46C201.743,-685.933 201.743,-668.443 201.743,-652.988"/>
<polygon fill="black" stroke="black" points="205.243,-652.774 201.743,-642.774 198.243,-652.774 205.243,-652.774"/>
<text text-anchor="middle" x="232.07" y="-663.4" font-family="Times,serif" font-size="14.00">file_names</text>
</g>
<!-- p3 -->
<g id="node4" class="node"><title>p3</title>
<ellipse fill="none" stroke="black" cx="201.743" cy="-538.6" rx="77.7589" ry="18"/>
<text text-anchor="middle" x="201.743" y="-534.4" font-family="Times,serif" font-size="14.00">get_msa_replicates</text>
</g>
<!-- p2&#45;&gt;p3 -->
<g id="edge3" class="edge"><title>p2&#45;&gt;p3</title>
<path fill="none" stroke="black" d="M201.743,-606.195C201.743,-594.857 201.743,-579.827 201.743,-566.915"/>
<polygon fill="black" stroke="black" points="205.243,-566.695 201.743,-556.695 198.243,-566.695 205.243,-566.695"/>
<text text-anchor="middle" x="251.115" y="-577.4" font-family="Times,serif" font-size="14.00">shuffle_replicates</text>
</g>
<!-- p4 -->
<g id="node5" class="node"><title>p4</title>
<ellipse fill="none" stroke="black" cx="116.743" cy="-452.6" rx="60.8873" ry="18"/>
<text text-anchor="middle" x="116.743" y="-448.4" font-family="Times,serif" font-size="14.00">get_msa_trees</text>
</g>
<!-- p3&#45;&gt;p4 -->
<g id="edge4" class="edge"><title>p3&#45;&gt;p4</title>
<path fill="none" stroke="black" d="M178.374,-521.122C171.093,-515.569 163.228,-509.118 156.556,-502.6 148.991,-495.209 141.473,-486.429 135.042,-478.357"/>
<polygon fill="black" stroke="black" points="137.674,-476.04 128.776,-470.289 132.145,-480.334 137.674,-476.04"/>
<text text-anchor="middle" x="198.336" y="-491.4" font-family="Times,serif" font-size="14.00">msa_replicates</text>
</g>
<!-- p9 -->
<g id="node6" class="node"><title>p9</title>
<ellipse fill="none" stroke="black" cx="275.743" cy="-398.6" rx="91.2894" ry="18"/>
<text text-anchor="middle" x="275.743" y="-394.4" font-family="Times,serif" font-size="14.00">get_seqboot_replicates</text>
</g>
<!-- p3&#45;&gt;p9 -->
<g id="edge5" class="edge"><title>p3&#45;&gt;p9</title>
<path fill="none" stroke="black" d="M223.363,-521.046C229.297,-515.675 235.31,-509.346 239.743,-502.6 255.119,-479.2 264.741,-448.484 270.127,-426.701"/>
<polygon fill="black" stroke="black" points="273.574,-427.33 272.438,-416.796 266.757,-425.74 273.574,-427.33"/>
<text text-anchor="middle" x="291.836" y="-491.4" font-family="Times,serif" font-size="14.00">msa_replicates2</text>
</g>
<!-- p7 -->
<g id="node7" class="node"><title>p7</title>
<ellipse fill="none" stroke="black" cx="85.7426" cy="-201.6" rx="85.986" ry="18"/>
<text text-anchor="middle" x="85.7426" y="-197.4" font-family="Times,serif" font-size="14.00">get_stable_msa_trees</text>
</g>
<!-- p4&#45;&gt;p7 -->
<g id="edge6" class="edge"><title>p4&#45;&gt;p7</title>
<path fill="none" stroke="black" d="M108.168,-434.518C97.1754,-411.57 78.7056,-369.201 71.7631,-330.6 65.5378,-295.987 72.2436,-255.575 78.3381,-229.564"/>
<polygon fill="black" stroke="black" points="81.7778,-230.234 80.7869,-219.685 74.9835,-228.549 81.7778,-230.234"/>
<text text-anchor="middle" x="100.732" y="-308.4" font-family="Times,serif" font-size="14.00">msa_trees</text>
</g>
<!-- p5 -->
<g id="node8" class="node"><title>p5</title>
<ellipse fill="none" stroke="black" cx="126.743" cy="-355.6" rx="3.5" ry="3.5"/>
<text text-anchor="middle" x="93.6977" y="-361.9" font-family="Times,serif" font-size="14.00">collectFile</text>
</g>
<!-- p4&#45;&gt;p5 -->
<g id="edge7" class="edge"><title>p4&#45;&gt;p5</title>
<path fill="none" stroke="black" d="M112.778,-434.358C110.132,-419.781 107.936,-398.478 112.763,-380.6 114.045,-375.852 116.525,-371.077 119.044,-367.051"/>
<polygon fill="black" stroke="black" points="122.06,-368.85 125.011,-358.674 116.359,-364.789 122.06,-368.85"/>
<text text-anchor="middle" x="145.232" y="-394.4" font-family="Times,serif" font-size="14.00">msa_trees2</text>
</g>
<!-- p10 -->
<g id="node12" class="node"><title>p10</title>
<ellipse fill="none" stroke="black" cx="275.743" cy="-312.6" rx="76.7726" ry="18"/>
<text text-anchor="middle" x="275.743" y="-308.4" font-family="Times,serif" font-size="14.00">get_replicate_trees</text>
</g>
<!-- p9&#45;&gt;p10 -->
<g id="edge12" class="edge"><title>p9&#45;&gt;p10</title>
<path fill="none" stroke="black" d="M275.743,-380.195C275.743,-368.857 275.743,-353.827 275.743,-340.915"/>
<polygon fill="black" stroke="black" points="279.243,-340.695 275.743,-330.695 272.243,-340.695 279.243,-340.695"/>
<text text-anchor="middle" x="302.56" y="-351.4" font-family="Times,serif" font-size="14.00">replicates</text>
</g>
<!-- p8 -->
<g id="node10" class="node"><title>p8</title>
<ellipse fill="black" stroke="black" cx="76.7426" cy="-130.1" rx="1.8" ry="1.8"/>
</g>
<!-- p7&#45;&gt;p8 -->
<g id="edge10" class="edge"><title>p7&#45;&gt;p8</title>
<path fill="none" stroke="black" d="M81.0191,-183.277C79.6874,-177.679 78.4008,-171.415 77.6596,-165.6 76.6654,-157.799 76.4496,-148.929 76.4754,-142.136"/>
<polygon fill="black" stroke="black" points="79.9784,-142.034 76.7025,-131.958 72.9802,-141.878 79.9784,-142.034"/>
<text text-anchor="middle" x="110.784" y="-154.4" font-family="Times,serif" font-size="14.00">stable_trees</text>
</g>
<!-- p12 -->
<g id="node11" class="node"><title>p12</title>
<ellipse fill="none" stroke="black" cx="204.743" cy="-130.1" rx="3.5" ry="3.5"/>
<text text-anchor="middle" x="189.191" y="-136.4" font-family="Times,serif" font-size="14.00">max</text>
</g>
<!-- p7&#45;&gt;p12 -->
<g id="edge11" class="edge"><title>p7&#45;&gt;p12</title>
<path fill="none" stroke="black" d="M112.601,-184.401C122.404,-178.487 133.576,-171.743 143.743,-165.6 154.03,-159.384 156.451,-157.574 166.88,-151.6 175.495,-146.665 185.362,-141.333 192.863,-137.344"/>
<polygon fill="black" stroke="black" points="194.749,-140.307 201.962,-132.547 191.484,-134.115 194.749,-140.307"/>
<text text-anchor="middle" x="216.174" y="-154.4" font-family="Times,serif" font-size="14.00">most_stable_tree</text>
</g>
<!-- p6 -->
<g id="node9" class="node"><title>p6</title>
<ellipse fill="none" stroke="black" cx="128.743" cy="-269.6" rx="3.5" ry="3.5"/>
<text text-anchor="middle" x="114.35" y="-275.9" font-family="Times,serif" font-size="14.00">first</text>
</g>
<!-- p5&#45;&gt;p6 -->
<g id="edge8" class="edge"><title>p5&#45;&gt;p6</title>
<path fill="none" stroke="black" d="M127.44,-352.104C128.61,-347.772 130.922,-338.559 131.743,-330.6 133.383,-314.684 132.737,-310.569 131.743,-294.6 131.513,-290.907 131.086,-286.912 130.624,-283.261"/>
<polygon fill="black" stroke="black" points="134.052,-282.511 129.161,-273.113 127.124,-283.51 134.052,-282.511"/>
</g>
<!-- p6&#45;&gt;p7 -->
<g id="edge9" class="edge"><title>p6&#45;&gt;p7</title>
<path fill="none" stroke="black" d="M127.312,-266.404C123.389,-260.383 112.102,-243.059 102.278,-227.979"/>
<polygon fill="black" stroke="black" points="105.12,-225.931 96.729,-219.463 99.2553,-229.752 105.12,-225.931"/>
</g>
<!-- p13 -->
<g id="node14" class="node"><title>p13</title>
<ellipse fill="none" stroke="black" cx="251.743" cy="-71.6" rx="79.2212" ry="18"/>
<text text-anchor="middle" x="251.743" y="-67.4" font-family="Times,serif" font-size="14.00">get_shootstrap_tree</text>
</g>
<!-- p12&#45;&gt;p13 -->
<g id="edge15" class="edge"><title>p12&#45;&gt;p13</title>
<path fill="none" stroke="black" d="M206.762,-126.672C211.045,-121.524 221.445,-109.022 231.166,-97.3355"/>
<polygon fill="black" stroke="black" points="234,-99.4015 237.705,-89.4753 228.619,-94.9248 234,-99.4015"/>
</g>
<!-- p11 -->
<g id="node13" class="node"><title>p11</title>
<ellipse fill="none" stroke="black" cx="275.743" cy="-241.1" rx="3.5" ry="3.5"/>
<text text-anchor="middle" x="242.698" y="-247.4" font-family="Times,serif" font-size="14.00">collectFile</text>
</g>
<!-- p10&#45;&gt;p11 -->
<g id="edge13" class="edge"><title>p10&#45;&gt;p11</title>
<path fill="none" stroke="black" d="M275.743,-294.42C275.743,-282.17 275.743,-265.967 275.743,-254.856"/>
<polygon fill="black" stroke="black" points="279.243,-254.695 275.743,-244.695 272.243,-254.695 279.243,-254.695"/>
<text text-anchor="middle" x="288.957" y="-265.4" font-family="Times,serif" font-size="14.00">trees</text>
</g>
<!-- p11&#45;&gt;p13 -->
<g id="edge14" class="edge"><title>p11&#45;&gt;p13</title>
<path fill="none" stroke="black" d="M275.366,-237.469C273.156,-222.045 261.769,-142.573 255.647,-99.8514"/>
<polygon fill="black" stroke="black" points="259.096,-99.2457 254.213,-89.8432 252.167,-100.239 259.096,-99.2457"/>
</g>
<!-- p14 -->
<g id="node15" class="node"><title>p14</title>
<ellipse fill="black" stroke="black" cx="251.743" cy="-1.8" rx="1.8" ry="1.8"/>
</g>
<!-- p13&#45;&gt;p14 -->
<g id="edge16" class="edge"><title>p13&#45;&gt;p14</title>
<path fill="none" stroke="black" d="M251.743,-53.4912C251.743,-41.2714 251.743,-25.1573 251.743,-14.4107"/>
<polygon fill="black" stroke="black" points="255.243,-14.1543 251.743,-4.15433 248.243,-14.1544 255.243,-14.1543"/>
<text text-anchor="middle" x="294.508" y="-24.4" font-family="Times,serif" font-size="14.00">shootstrap_tree</text>
</g>
</g>
</svg>
